HIERARCHY
ROOT Hips
{
	OFFSET 0.000000 0.000000 0.000000
	CHANNELS 6 Xposition Yposition Zposition Xrotation Yrotation Zrotation
	JOINT LeftUpLeg_virtual
	{
		OFFSET 0.000000 0.000000 0.000000
		CHANNELS 3 Xrotation Yrotation Zrotation
		JOINT LeftUpLeg
		{
			OFFSET 10.205400 -3.823500 0.155100
			CHANNELS 3 Xrotation Yrotation Zrotation
			JOINT LeftLeg
			{
				OFFSET 0.708757 -12.982077 0.567790
				CHANNELS 3 Xrotation Yrotation Zrotation
				JOINT LeftFoot
				{
					OFFSET -0.708756 -10.717838 -2.184338
					CHANNELS 3 Xrotation Yrotation Zrotation
					JOINT LeftToeBase
					{
						OFFSET 0.108149 -7.191104 7.560241
						CHANNELS 3 Xrotation Yrotation Zrotation
						JOINT LeftToe_End
						{
							OFFSET 0.070230 0.081724 4.490308
							CHANNELS 3 Xrotation Yrotation Zrotation
							End Site
							{
								OFFSET 0 0 0
							}
						}
					}
				}
			}
		}
	}
	JOINT RightUpLeg_virtual
	{
		OFFSET 0.000000 0.000000 0.000000
		CHANNELS 3 Xrotation Yrotation Zrotation
		JOINT RightUpLeg
		{
			OFFSET -10.205400 -3.823500 0.005500
			CHANNELS 3 Xrotation Yrotation Zrotation
			JOINT RightLeg
			{
				OFFSET -0.708756 -12.982134 0.610632
				CHANNELS 3 Xrotation Yrotation Zrotation
				JOINT RightFoot
				{
					OFFSET 0.708754 -10.717769 -1.945823
					CHANNELS 3 Xrotation Yrotation Zrotation
					JOINT RightToeBase
					{
						OFFSET -0.108140 -7.191069 7.372968
						CHANNELS 3 Xrotation Yrotation Zrotation
						JOINT RightToe_End
						{
							OFFSET -0.070227 0.081735 4.479403
							CHANNELS 3 Xrotation Yrotation Zrotation
							End Site
							{
								OFFSET 0 0 0
							}
						}
					}
				}
			}
		}
	}
	JOINT Spine_virtual
	{
		OFFSET 0.000000 0.000000 0.000000
		CHANNELS 3 Xrotation Yrotation Zrotation
		JOINT Spine
		{
			OFFSET 0.000000 6.876099 0.125700
			CHANNELS 3 Xrotation Yrotation Zrotation
			JOINT Spine1
			{
				OFFSET 0.000000 5.730043 0.104720
				CHANNELS 3 Xrotation Yrotation Zrotation
				JOINT Spine1_split
				{
					OFFSET 0.000000 5.730043 0.104720
					CHANNELS 3 Xrotation Yrotation Zrotation
					JOINT Spine2
					{
						OFFSET 0.000000 5.730043 0.104720
						CHANNELS 3 Xrotation Yrotation Zrotation
						JOINT Neck_virtual
						{
							OFFSET 0.000000 0.000000 0.000000
							CHANNELS 3 Xrotation Yrotation Zrotation
							JOINT Neck
							{
								OFFSET 0.000000 10.314075 0.188496
								CHANNELS 3 Xrotation Yrotation Zrotation
								JOINT Head
								{
									OFFSET 0.000000 7.643700 -2.377400
									CHANNELS 3 Xrotation Yrotation Zrotation
									JOINT HeadTop_End
									{
										OFFSET 0.000000 43.788605 -13.619600
										CHANNELS 3 Xrotation Yrotation Zrotation
										End Site
										{
											OFFSET 0 0 0
										}
									}
								}
							}
						}
						JOINT LeftShoulder_virtual
						{
							OFFSET 0.000000 0.000000 0.000000
							CHANNELS 3 Xrotation Yrotation Zrotation
							JOINT LeftShoulder
							{
								OFFSET 2.196100 4.412489 0.087492
								CHANNELS 3 Xrotation Yrotation Zrotation
								JOINT LeftShoulder_split
								{
									OFFSET 2.196100 4.412489 0.087492
									CHANNELS 3 Xrotation Yrotation Zrotation
									JOINT LeftArm
									{
										OFFSET 8.771219 -2.981674 -0.026999
										CHANNELS 3 Xrotation Yrotation Zrotation
										JOINT LeftForeArm
										{
											OFFSET 8.512804 0.000000 -0.000000
											CHANNELS 3 Xrotation Yrotation Zrotation
											JOINT LeftHand
											{
												OFFSET 18.484802 0.000000 -0.000000
												CHANNELS 3 Xrotation Yrotation Zrotation
												End Site
												{
													OFFSET 0 0 0
												}
											}
										}
									}
								}
							}
						}
						JOINT RightShoulder_virtual
						{
							OFFSET 0.000000 0.000000 0.000000
							CHANNELS 3 Xrotation Yrotation Zrotation
							JOINT RightShoulder
							{
								OFFSET -2.196100 4.412496 0.070690
								CHANNELS 3 Xrotation Yrotation Zrotation
								JOINT RightShoulder_split
								{
									OFFSET -2.196100 4.412496 0.070690
									CHANNELS 3 Xrotation Yrotation Zrotation
									JOINT RightArm
									{
										OFFSET -8.771282 -2.981682 -0.094208
										CHANNELS 3 Xrotation Yrotation Zrotation
										JOINT RightForeArm
										{
											OFFSET -8.494598 0.000000 0.000000
											CHANNELS 3 Xrotation Yrotation Zrotation
											JOINT RightHand
											{
												OFFSET -18.483803 0.000000 0.000001
												CHANNELS 3 Xrotation Yrotation Zrotation
												End Site
												{
													OFFSET 0 0 0
												}
											}
										}
									}
								}
							}
						}
					}
				}
			}
		}
	}
}
MOTION
Frames: 8
Frame Time: 0.03333333
1.540842 53.706108 4.152476 0.000000 0.000000 0.000000 7.348279 -16.234873 7.389063 -89.554558 -0.036932 16.332536 69.101072 -5.570087 -7.882349 0.920712 -16.551618 3.632671 0.638738 -0.892580 0.357205 0.000000 0.000000 0.000000 6.533514 -6.736091 6.471520 -81.563237 5.508398 -4.687243 123.561127 0.228961 -5.295364 7.106327 4.857266 15.483270 17.305164 0.331472 -1.528908 0.000000 0.000000 0.000000 0.344699 -6.838821 8.948546 30.154196 -5.778628 -10.557989 1.123626 -3.333759 -2.274595 3.006684 -0.349752 0.434924 0.000000 0.000000 0.000000 4.149809 -1.819024 -1.304234 -22.828500 4.540631 6.524890 18.547923 3.698426 -18.078245 0.000000 0.000000 0.000000 3.071286 -1.998379 -1.187672 12.918664 -38.504771 33.846582 -4.770844 -0.620386 0.816984 -66.585588 14.506246 18.315116 -45.858481 -68.790264 -29.137006 0.000000 0.000000 0.000000 3.524652 -2.223471 -1.195612 0.964489 8.332081 -16.667296 5.952732 1.878088 -3.235492 -84.087019 -9.994280 -15.970005 -66.146748 68.105462 63.252504 0.000000 0.000000 0.000000 
0.887897 53.386230 6.856992 0.000000 0.000000 0.000000 4.962214 -15.885857 7.177499 -89.533501 0.247757 17.727416 64.181915 -4.621494 -8.572959 4.083107 -15.011262 7.061663 0.173423 -0.503697 -0.317016 0.000000 0.000000 0.000000 5.217267 -9.706047 6.803607 -79.998748 4.467213 -6.423826 121.532479 0.635248 -4.348024 7.437335 3.709793 16.226525 14.754749 0.349386 -1.806570 0.000000 0.000000 0.000000 -1.249088 -6.802255 7.930567 30.001784 -5.633643 -10.219615 0.699099 -3.119512 -2.535045 2.027239 -2.185665 0.864353 0.000000 0.000000 0.000000 4.098419 -1.721650 -1.593582 -22.740807 3.619684 7.591044 17.948451 4.387639 -18.750169 0.000000 0.000000 0.000000 2.723359 -1.839499 -1.541523 10.995177 -37.500266 31.161615 -3.977357 -2.193970 1.616864 -65.020717 13.057032 16.729799 -54.189304 -70.775452 -37.541769 0.000000 0.000000 0.000000 3.321033 -2.071758 -1.573448 0.549819 8.350538 -16.907742 6.887314 0.645136 -1.263271 -83.299341 -10.142310 -13.463528 -67.836530 67.810002 65.002951 0.000000 0.000000 0.000000 
0.127972 52.690475 10.668790 0.000000 0.000000 0.000000 2.735489 -16.570010 7.520434 -85.271326 -0.850327 18.091269 53.100916 -2.681786 -9.057691 11.661126 -11.771545 8.724032 -0.113288 -0.067586 -0.511998 0.000000 0.000000 0.000000 3.232101 -14.293248 7.463573 -73.952159 2.716949 -8.854416 114.949037 1.331026 -3.681117 8.220387 1.430055 16.959042 13.688613 0.499731 -0.967776 0.000000 0.000000 0.000000 -3.071412 -8.351745 7.127055 28.311122 -5.069985 -9.078435 0.746402 -2.878952 -3.424855 1.209502 -3.880543 1.756819 0.000000 0.000000 0.000000 4.687958 -1.703371 -2.510356 -22.113345 2.674768 9.964286 18.224386 5.539225 -19.299823 0.000000 0.000000 0.000000 3.121374 -1.781861 -2.539563 7.661799 -34.853246 26.170616 -3.037234 -3.150228 1.717254 -61.443330 9.442042 14.043686 -60.372923 -71.941071 -43.593467 0.000000 0.000000 0.000000 3.526625 -2.089685 -2.598483 0.293576 10.313935 -16.201692 6.796429 -0.092680 0.107056 -81.028064 -11.417738 -11.183886 -72.721796 67.590336 69.735945 0.000000 0.000000 0.000000 
-0.529563 51.595718 14.978040 0.000000 0.000000 0.000000 0.272518 -18.471999 7.935730 -77.468074 -3.367639 17.717072 38.624525 -0.248796 -8.642559 22.160578 -7.432254 7.518647 0.234361 0.408625 -0.581011 0.000000 0.000000 0.000000 1.094492 -19.082176 8.059788 -63.543565 0.112913 -11.316736 103.885360 2.165038 -2.930924 9.364746 -1.554397 17.099177 13.664991 0.688647 0.580842 0.000000 0.000000 0.000000 -5.416768 -11.568751 6.556717 25.419804 -4.211948 -7.181367 1.363520 -2.603608 -4.752251 1.617912 -5.129229 2.264528 0.000000 0.000000 0.000000 5.583387 -1.731875 -3.808216 -20.896349 1.859384 12.938316 19.074406 6.959953 -19.723904 0.000000 0.000000 0.000000 4.120088 -1.766725 -4.019268 3.759988 -30.845278 19.738625 -1.701475 -2.974096 1.718638 -56.813780 4.202193 10.799494 -61.003507 -71.939131 -43.839357 0.000000 0.000000 0.000000 4.130569 -2.163720 -4.075057 0.146376 13.803365 -14.850831 6.073283 -0.046997 0.990438 -78.164753 -14.086311 -10.028582 -79.690809 67.235604 76.385878 0.000000 0.000000 0.000000 
-1.034012 50.003845 19.641907 0.000000 0.000000 0.000000 -2.263127 -22.179948 8.241250 -67.624965 -7.061862 17.126564 24.304958 1.879938 -7.062098 32.838610 -3.816418 3.897506 0.812993 0.896513 -0.638929 0.000000 0.000000 0.000000 -1.037779 -23.555958 8.327839 -50.923141 -3.368495 -13.594779 89.299416 3.196512 -2.102602 10.634908 -4.206634 17.155736 12.778658 0.882720 2.014129 0.000000 0.000000 0.000000 -7.522641 -16.230541 6.095124 21.825451 -3.165915 -4.585399 2.429729 -2.173169 -6.235904 1.887367 -5.352541 2.232646 0.000000 0.000000 0.000000 6.611273 -1.611497 -5.245151 -19.359082 1.450387 15.584610 19.953368 8.582153 -20.084243 0.000000 0.000000 0.000000 5.349209 -1.611424 -5.672699 0.156866 -26.166506 13.059679 -0.585012 -2.048902 2.187900 -52.420677 -1.384589 7.886434 -57.563414 -70.872864 -39.705642 0.000000 0.000000 0.000000 5.036664 -2.064893 -5.738512 -0.013393 18.100928 -13.181843 5.284985 0.858022 1.907055 -75.860780 -17.893253 -10.392787 -86.545832 66.594105 82.880241 0.000000 0.000000 0.000000 
-1.345014 47.790619 24.247084 0.000000 0.000000 0.000000 -4.878111 -27.628061 8.109200 -57.268653 -11.471055 17.044034 13.019802 2.767222 -4.572286 41.566195 -2.336019 -0.815720 0.466262 1.255478 -0.469403 0.000000 0.000000 0.000000 -2.967246 -28.156533 8.284138 -38.974682 -7.041952 -15.627027 73.832193 4.340740 -1.105731 11.440053 -5.763034 17.703625 9.453523 0.899687 2.635810 0.000000 0.000000 0.000000 -9.004102 -22.671099 5.669235 18.222060 -2.022225 -1.676858 3.728932 -1.337941 -7.629392 1.550995 -4.858968 2.201927 0.000000 0.000000 0.000000 7.661690 -1.154216 -6.569351 -17.768030 1.628646 17.217240 20.261611 10.259150 -20.488986 0.000000 0.000000 0.000000 6.448336 -1.088014 -7.211333 -2.705157 -21.403931 6.964865 -0.119270 -0.700132 2.965166 -49.486015 -5.781131 5.494258 -55.502472 -69.851306 -36.777157 0.000000 0.000000 0.000000 6.010835 -1.601781 -7.304232 -0.326610 22.415911 -11.456629 4.759666 2.225931 2.966736 -75.462327 -21.807025 -12.394200 -90.767067 65.814699 86.781242 0.000000 0.000000 0.000000 
-1.525535 44.951576 28.817513 0.000000 0.000000 0.000000 -6.959975 -33.270398 7.627812 -48.103045 -15.730674 17.689888 6.229853 2.379865 -2.122641 46.881770 -3.215335 -5.265603 -0.783552 1.379613 0.157242 0.000000 0.000000 0.000000 -4.488992 -32.480002 8.126057 -29.640941 -10.258993 -17.664847 60.273298 5.893162 -0.070695 10.547135 -6.118363 19.110051 4.158003 0.669726 1.823914 0.000000 0.000000 0.000000 -9.453566 -29.983697 5.433674 14.940185 -0.789852 1.230542 4.921243 -0.034537 -8.711912 0.954702 -3.807643 1.805503 0.000000 0.000000 0.000000 8.557944 -0.220647 -7.640610 -16.245393 2.302986 17.362718 19.642149 12.008243 -21.066632 0.000000 0.000000 0.000000 7.161405 0.020213 -8.386759 -4.752656 -17.051316 1.835403 0.210547 0.551645 3.321180 -48.121224 -7.555367 3.318140 -58.754886 -69.957434 -39.189880 0.000000 0.000000 0.000000 6.860244 -0.595815 -8.525910 -0.904970 26.070462 -9.790905 4.107199 3.397831 4.093448 -77.408631 -24.670662 -15.769899 -92.124813 65.249924 87.854749 0.000000 0.000000 0.000000 
-1.589331 41.588490 33.087566 0.000000 0.000000 0.000000 -7.955127 -39.001367 7.059948 -41.377016 -19.022408 18.824333 4.080591 1.440505 -0.260368 48.683071 -5.715054 -8.857984 -1.882587 1.281628 0.994645 0.000000 0.000000 0.000000 -5.928562 -37.707480 7.768181 -24.255363 -12.456344 -19.836416 51.715385 7.650799 1.119234 6.227373 -6.118870 20.057685 -0.505919 0.545511 -0.208723 0.000000 0.000000 0.000000 -8.039100 -37.565334 5.912792 12.299663 0.384795 3.717522 5.671079 1.666228 -9.321985 0.352164 -2.753677 1.639647 0.000000 0.000000 0.000000 9.320058 1.179523 -8.375049 -14.909248 3.455511 16.109180 18.145796 13.759045 -21.712044 0.000000 0.000000 0.000000 7.424057 1.657850 -9.052135 -6.085372 -13.578703 -2.026463 0.467564 1.614190 2.914639 -47.670301 -5.180513 1.444326 -69.273220 -71.328212 -49.115453 0.000000 0.000000 0.000000 7.469437 0.919439 -9.258483 -1.786845 28.527480 -7.959188 3.294172 4.576670 4.704154 -80.685776 -25.218291 -19.333238 -91.911349 65.218956 87.398930 0.000000 0.000000 0.000000 
